<?xml version="1.0" standalone="no"?><!DOCTYPE svg PUBLIC "-//W3C//DTD SVG 1.1//EN" "http://www.w3.org/Graphics/SVG/1.1/DTD/svg11.dtd"><svg t="1561685915991" class="icon" viewBox="0 0 1024 1024" version="1.1" xmlns="http://www.w3.org/2000/svg" p-id="64681" xmlns:xlink="http://www.w3.org/1999/xlink" width="200" height="200"><defs><style type="text/css"></style></defs><path d="M142 242h740c16.6 0 30-13.4 30-30s-13.4-30-30-30H142c-16.6 0-30 13.4-30 30s13.4 30 30 30z m740 240H142c-16.6 0-30 13.4-30 30s13.4 30 30 30h740c16.6 0 30-13.4 30-30s-13.4-30-30-30z m0 300H142c-16.6 0-30 13.4-30 30s13.4 30 30 30h740c16.6 0 30-13.4 30-30s-13.4-30-30-30z" p-id="64682" fill="#ffffff"></path></svg>